<?xml version="1.0" encoding="utf-8"?>
<!-- Generator: Adobe Illustrator 26.5.0, SVG Export Plug-In . SVG Version: 6.00 Build 0)  -->
<svg version="1.1" id="Layer_1" xmlns="http://www.w3.org/2000/svg" xmlns:xlink="http://www.w3.org/1999/xlink" x="0px" y="0px"
	 viewBox="0 0 40 40" style="enable-background:new 0 0 32 32;" xml:space="preserve">
<style type="text/css">
	.st0{fill:#A93A2B;}
</style>
<path class="st0" d="M6,3.5v23.2C6,27.4,6.6,28,7.4,28c0.4,0,0.8-0.2,1-0.5l5.2-5.9l3.6,7.3c0.5,1,1.7,1.4,2.7,0.9s1.4-1.7,0.9-2.7
	L17.2,20h7.4c0.8,0,1.4-0.6,1.4-1.4c0-0.4-0.2-0.8-0.5-1L8.4,2.4C8.1,2.1,7.8,2,7.4,2C6.7,2,6,2.7,6,3.5z"/>
</svg>
