<?xml version="1.0" encoding="utf-8"?>
<!-- Generator: Adobe Illustrator 26.5.0, SVG Export Plug-In . SVG Version: 6.00 Build 0)  -->
<svg version="1.1" id="Layer_1" xmlns="http://www.w3.org/2000/svg" xmlns:xlink="http://www.w3.org/1999/xlink" x="0px" y="0px"
	 viewBox="0 0 384 512" style="enable-background:new 0 0 384 512;" xml:space="preserve">
<style type="text/css">
	.st0{fill:#A9A9C2;}
</style>
<path class="st0" d="M14,95.8C14,42.9,56.9,0,109.8,0h164.4C327.1,0,370,42.9,370,95.8c0,33.5-17.2,63-43.2,80.1
	c26,17.1,43.2,46.6,43.2,80.1c0,52.9-42.9,95.8-95.8,95.8h-2.1c-24.8,0-47.4-9.4-64.4-24.9v88.3c0,53.6-44,96.8-97.4,96.8
	C57.5,512,14,469.2,14,416.2c0-33.5,17.2-63,43.2-80.1C31.2,319,14,289.5,14,256c0-33.5,17.2-63,43.2-80.1
	C31.2,158.8,14,129.3,14,95.8z M176.3,191.6h-66.5c-35.6,0-64.4,28.8-64.4,64.4c0,35.4,28.6,64.2,64,64.4c0.1,0,0.3,0,0.4,0h66.5
	V191.6z M207.7,256c0,35.6,28.8,64.4,64.4,64.4h2.1c35.6,0,64.4-28.8,64.4-64.4s-28.8-64.4-64.4-64.4h-2.1
	C236.5,191.6,207.7,220.4,207.7,256z M109.8,351.8c-0.1,0-0.3,0-0.4,0c-35.4,0.2-64,29-64,64.4c0,35.4,29.2,64.4,64.9,64.4
	c36.3,0,66-29.4,66-65.5v-63.4H109.8z M109.8,31.4c-35.6,0-64.4,28.8-64.4,64.4c0,35.6,28.8,64.4,64.4,64.4h66.5V31.4H109.8z
	 M207.7,160.2h66.5c35.6,0,64.4-28.8,64.4-64.4c0-35.6-28.8-64.4-64.4-64.4h-66.5V160.2z"/>
</svg>
