<?xml version="1.0" encoding="utf-8"?>
<!-- Generator: Adobe Illustrator 26.5.0, SVG Export Plug-In . SVG Version: 6.00 Build 0)  -->
<svg version="1.1" id="Layer_1" xmlns="http://www.w3.org/2000/svg" xmlns:xlink="http://www.w3.org/1999/xlink" x="0px" y="0px"
	 viewBox="0 0 384 512" style="enable-background:new 0 0 384 512;" xml:space="preserve">
<style type="text/css">
	.st0{fill:#A9A9C2;}
</style>
<path class="st0" d="M64,464c-8.8,0-16-7.2-16-16V64c0-8.8,7.2-16,16-16h160v80c0,17.7,14.3,32,32,32h80v288c0,8.8-7.2,16-16,16H64z
	 M64,0C28.7,0,0,28.7,0,64v384c0,35.3,28.7,64,64,64h256c35.3,0,64-28.7,64-64V154.5c0-17-6.7-33.3-18.7-45.3l-90.6-90.5
	C262.7,6.7,246.5,0,229.5,0H64z M120,256c-13.3,0-24,10.7-24,24s10.7,24,24,24h144c13.3,0,24-10.7,24-24s-10.7-24-24-24H120z
	 M120,352c-13.3,0-24,10.7-24,24s10.7,24,24,24h144c13.3,0,24-10.7,24-24s-10.7-24-24-24H120z"/>
</svg>
