<?xml version="1.0" encoding="utf-8"?>
<!-- Generator: Adobe Illustrator 26.5.0, SVG Export Plug-In . SVG Version: 6.00 Build 0)  -->
<svg version="1.1" id="Layer_1" xmlns="http://www.w3.org/2000/svg" xmlns:xlink="http://www.w3.org/1999/xlink" x="0px" y="0px"
	 viewBox="0 0 384 512" style="enable-background:new 0 0 384 512;" xml:space="preserve">
<style type="text/css">
	.st0{fill:#A9A9C2;}
</style>
<path class="st0" d="M84,431.5c-7.4,0-13.5-6.1-13.5-13.5V94c0-7.4,6.1-13.5,13.5-13.5h135V148c0,14.9,12.1,27,27,27h67.5v243
	c0,7.4-6.1,13.5-13.5,13.5H84z M84,40c-29.8,0-54,24.2-54,54V418c0,29.8,24.2,54,54,54h216c29.8,0,54-24.2,54-54V170.3
	c0-14.3-5.7-28.1-15.8-38.2l-76.5-76.4C251.7,45.6,238,40,223.6,40H84z M131.2,256c-11.2,0-20.3,9-20.3,20.3s9,20.3,20.3,20.3h121.5
	c11.2,0,20.3-9,20.3-20.3s-9-20.3-20.3-20.3H131.2z M131.2,337c-11.2,0-20.3,9-20.3,20.3c0,11.2,9,20.3,20.3,20.3h121.5
	c11.2,0,20.3-9,20.3-20.3c0-11.2-9-20.3-20.3-20.3H131.2z"/>
</svg>
