<?xml version="1.0" encoding="utf-8"?>
<!-- Generator: Adobe Illustrator 26.5.0, SVG Export Plug-In . SVG Version: 6.00 Build 0)  -->
<svg version="1.1" id="Layer_1" xmlns="http://www.w3.org/2000/svg" xmlns:xlink="http://www.w3.org/1999/xlink" x="0px" y="0px"
	 viewBox="0 0 512 512" style="enable-background:new 0 0 512 512;" xml:space="preserve">
<style type="text/css">
	.st0{fill:#4E4E57;}
</style>
<path class="st0" d="M168.5,72l87.5,93l87.5-93H168.5z M383.9,99.1L311.5,176h129L383.9,99.1z M433.9,224H256H78.1L256,420.3
	L433.9,224z M71.5,176h129l-72.4-76.9L71.5,176z M505.8,216.1l-232,256c-4.5,5-11,7.9-17.8,7.9s-13.2-2.9-17.8-7.9l-232-256
	c-7.7-8.5-8.3-21.2-1.5-30.4l112-152c4.5-6.1,11.7-9.8,19.3-9.8h240c7.6,0,14.8,3.6,19.3,9.8l112,152
	C514.1,194.9,513.4,207.6,505.8,216.1z"/>
</svg>
