<?xml version="1.0" encoding="utf-8"?>
<!-- Generator: Adobe Illustrator 26.5.0, SVG Export Plug-In . SVG Version: 6.00 Build 0)  -->
<svg version="1.1" id="Layer_1" xmlns="http://www.w3.org/2000/svg" xmlns:xlink="http://www.w3.org/1999/xlink" x="0px" y="0px"
	 viewBox="0 0 512 512" style="enable-background:new 0 0 512 512;" xml:space="preserve">
<style type="text/css">
	.st0{fill:#A9A9C2;}
</style>
<path class="st0" d="M0,96c0-35.3,28.7-64,64-64h384c35.3,0,64,28.7,64,64v320c0,35.3-28.7,64-64,64H64c-35.3,0-64-28.7-64-64V96z
	 M323.8,202.5c-4.5-6.6-11.9-10.5-19.8-10.5s-15.4,3.9-19.8,10.5l-87,127.6L170.7,297c-4.6-5.7-11.5-9-18.7-9s-14.2,3.3-18.7,9
	l-64,80c-5.8,7.2-6.9,17.1-2.9,25.4S78.8,416,88,416h96h32h208c8.9,0,17.1-4.9,21.2-12.8s3.6-17.4-1.4-24.7L323.8,202.5L323.8,202.5
	z M112,192c26.5,0,48-21.5,48-48s-21.5-48-48-48s-48,21.5-48,48S85.5,192,112,192z"/>
</svg>
