<?xml version="1.0" encoding="utf-8"?>
<!-- Generator: Adobe Illustrator 26.5.0, SVG Export Plug-In . SVG Version: 6.00 Build 0)  -->
<svg version="1.1" id="Layer_1" xmlns="http://www.w3.org/2000/svg" xmlns:xlink="http://www.w3.org/1999/xlink" x="0px" y="0px"
	 viewBox="0 0 512 512" style="enable-background:new 0 0 512 512;" xml:space="preserve">
<style type="text/css">
	.st0{fill:#A9A9C2;}
</style>
<path class="st0" d="M88,0C74.7,0,64,10.7,64,24c0,38.9,23.4,59.4,39.1,73.1l1.1,1c16.3,14.2,23.8,21.8,23.8,37.9
	c0,13.3,10.7,24,24,24s24-10.7,24-24c0-38.9-23.4-59.4-39.1-73.1l-1.1-1C119.5,47.7,112,40.1,112,24C112,10.7,101.3,0,88,0z M32,192
	c-17.7,0-32,14.3-32,32v192c0,53,43,96,96,96h192c53,0,96-43,96-96h16c61.9,0,112-50.1,112-112s-50.1-112-112-112h-48H32z M384,256
	h16c26.5,0,48,21.5,48,48s-21.5,48-48,48h-16V256z M224,24c0-13.3-10.7-24-24-24s-24,10.7-24,24c0,38.9,23.4,59.4,39.1,73.1l1.1,1
	c16.3,14.2,23.8,21.8,23.8,37.9c0,13.3,10.7,24,24,24c13.3,0,24-10.7,24-24c0-38.9-23.4-59.4-39.1-73.1l-1.1-1
	C231.5,47.7,224,40.1,224,24z"/>
</svg>
